<svg width="414" height="147" viewBox="0 0 414 147" fill="none" xmlns="http://www.w3.org/2000/svg">
<path d="M207 145.957C244.003 145.957 274 115.98 274 79.0014C274 42.0226 244.003 12.0453 207 12.0453C169.997 12.0453 140 42.0226 140 79.0014C140 115.98 169.997 145.957 207 145.957Z" fill="url(#paint0_linear)"/>
<path d="M201.628 114.615L169.949 89.9356L178.957 78.3761L198.41 93.5306L230.515 47.2022L242.563 55.5479L201.628 114.615Z" fill="white"/>
<g opacity="0.3">
<path d="M303.5 145.987C315.374 145.987 325 136.367 325 124.501C325 112.635 315.374 103.015 303.5 103.015C291.626 103.015 282 112.635 282 124.501C282 136.367 291.626 145.987 303.5 145.987Z" fill="url(#paint1_linear)"/>
<path d="M301.776 135.929L291.61 128.009L294.501 124.3L300.743 129.163L311.046 114.296L314.912 116.974L301.776 135.929Z" fill="white"/>
</g>
<g opacity="0.3">
<path d="M331.5 96.987C343.374 96.987 353 87.3675 353 75.5011C353 63.6348 343.374 54.0152 331.5 54.0152C319.626 54.0152 310 63.6348 310 75.5011C310 87.3675 319.626 96.987 331.5 96.987Z" fill="url(#paint2_linear)"/>
<path d="M329.776 86.9286L319.61 79.0092L322.501 75.2998L328.743 80.1628L339.046 65.2962L342.912 67.9743L329.776 86.9286Z" fill="white"/>
</g>
<g opacity="0.3">
<path d="M362.5 42.987C374.374 42.987 384 33.3675 384 21.5011C384 9.63479 374.374 0.0152283 362.5 0.0152283C350.626 0.0152283 341 9.63479 341 21.5011C341 33.3675 350.626 42.987 362.5 42.987Z" fill="url(#paint3_linear)"/>
<path d="M360.776 32.9286L350.61 25.0092L353.501 21.2998L359.743 26.1628L370.046 11.2962L373.912 13.9743L360.776 32.9286Z" fill="white"/>
</g>
<g opacity="0.3">
<path d="M406.5 85.987C418.374 85.987 428 76.3675 428 64.5011C428 52.6348 418.374 43.0152 406.5 43.0152C394.626 43.0152 385 52.6348 385 64.5011C385 76.3675 394.626 85.987 406.5 85.987Z" fill="url(#paint4_linear)"/>
<path d="M404.776 75.9286L394.61 68.0092L397.501 64.2998L403.743 69.1628L414.046 54.2962L417.912 56.9743L404.776 75.9286Z" fill="white"/>
</g>
<g opacity="0.3">
<path d="M383.5 139.987C395.374 139.987 405 130.367 405 118.501C405 106.635 395.374 97.0152 383.5 97.0152C371.626 97.0152 362 106.635 362 118.501C362 130.367 371.626 139.987 383.5 139.987Z" fill="url(#paint5_linear)"/>
<path d="M381.776 129.929L371.61 122.009L374.501 118.3L380.743 123.163L391.046 108.296L394.912 110.974L381.776 129.929Z" fill="white"/>
</g>
<g opacity="0.3">
<path d="M295 47.9847C308.255 47.9847 319 37.2466 319 24.0005C319 10.7544 308.255 0.0162354 295 0.0162354C281.745 0.0162354 271 10.7544 271 24.0005C271 37.2466 281.745 47.9847 295 47.9847Z" fill="url(#paint6_linear)"/>
<path d="M293.076 36.7575L281.728 27.9172L284.955 23.7765L291.923 29.205L303.423 12.6097L307.739 15.5992L293.076 36.7575Z" fill="white"/>
</g>
<g opacity="0.23">
<path d="M5.5 145.987C17.3741 145.987 27 136.367 27 124.501C27 112.635 17.3741 103.015 5.5 103.015C-6.37412 103.015 -16 112.635 -16 124.501C-16 136.367 -6.37412 145.987 5.5 145.987Z" fill="url(#paint7_linear)"/>
<path d="M3.77582 135.929L-6.38965 128.009L-3.49924 124.3L2.74315 129.163L13.0457 114.296L16.9116 116.974L3.77582 135.929Z" fill="white"/>
</g>
<g opacity="0.23">
<path d="M58.5 106.987C70.3741 106.987 80 97.3675 80 85.5011C80 73.6348 70.3741 64.0152 58.5 64.0152C46.6259 64.0152 37 73.6348 37 85.5011C37 97.3675 46.6259 106.987 58.5 106.987Z" fill="url(#paint8_linear)"/>
<path d="M56.7758 96.9286L46.6104 89.0092L49.5008 85.2998L55.7431 90.1628L66.0457 75.2962L69.9116 77.9743L56.7758 96.9286Z" fill="white"/>
</g>
<g opacity="0.23">
<path d="M107.5 54.987C119.374 54.987 129 45.3675 129 33.5011C129 21.6348 119.374 12.0152 107.5 12.0152C95.6259 12.0152 86 21.6348 86 33.5011C86 45.3675 95.6259 54.987 107.5 54.987Z" fill="url(#paint9_linear)"/>
<path d="M105.776 44.9286L95.6104 37.0092L98.5008 33.2998L104.743 38.1628L115.046 23.2962L118.912 25.9743L105.776 44.9286Z" fill="white"/>
</g>
<g opacity="0.23">
<path d="M96.5 146.987C108.374 146.987 118 137.367 118 125.501C118 113.635 108.374 104.015 96.5 104.015C84.6259 104.015 75 113.635 75 125.501C75 137.367 84.6259 146.987 96.5 146.987Z" fill="url(#paint10_linear)"/>
<path d="M94.7758 136.929L84.6104 129.009L87.5008 125.3L93.7431 130.163L104.046 115.296L107.912 117.974L94.7758 136.929Z" fill="white"/>
</g>
<g opacity="0.23">
<path d="M17 55.9847C30.2548 55.9847 41 45.2466 41 32.0005C41 18.7544 30.2548 8.01624 17 8.01624C3.74516 8.01624 -7 18.7544 -7 32.0005C-7 45.2466 3.74516 55.9847 17 55.9847Z" fill="url(#paint11_linear)"/>
<path d="M15.0755 44.7575L3.72803 35.9172L6.95453 31.7765L13.9228 37.205L25.4233 20.6097L29.7388 23.5992L15.0755 44.7575Z" fill="white"/>
</g>
<defs>
<linearGradient id="paint0_linear" x1="159.675" y1="112.938" x2="460.095" y2="40.0344" gradientUnits="userSpaceOnUse">
<stop stop-color="#FF5200"/>
<stop offset="1" stop-color="#FF5200" stop-opacity="0"/>
</linearGradient>
<linearGradient id="paint1_linear" x1="288.313" y1="135.391" x2="384.717" y2="111.997" gradientUnits="userSpaceOnUse">
<stop stop-color="#FF5200"/>
<stop offset="1" stop-color="#FF5200" stop-opacity="0"/>
</linearGradient>
<linearGradient id="paint2_linear" x1="316.313" y1="86.3912" x2="412.717" y2="62.9968" gradientUnits="userSpaceOnUse">
<stop stop-color="#FF5200"/>
<stop offset="1" stop-color="#FF5200" stop-opacity="0"/>
</linearGradient>
<linearGradient id="paint3_linear" x1="347.313" y1="32.3912" x2="443.717" y2="8.99679" gradientUnits="userSpaceOnUse">
<stop stop-color="#FF5200"/>
<stop offset="1" stop-color="#FF5200" stop-opacity="0"/>
</linearGradient>
<linearGradient id="paint4_linear" x1="391.313" y1="75.3912" x2="487.717" y2="51.9968" gradientUnits="userSpaceOnUse">
<stop stop-color="#FF5200"/>
<stop offset="1" stop-color="#FF5200" stop-opacity="0"/>
</linearGradient>
<linearGradient id="paint5_linear" x1="368.313" y1="129.391" x2="464.717" y2="105.997" gradientUnits="userSpaceOnUse">
<stop stop-color="#FF5200"/>
<stop offset="1" stop-color="#FF5200" stop-opacity="0"/>
</linearGradient>
<linearGradient id="paint6_linear" x1="278.048" y1="36.1569" x2="385.661" y2="10.0422" gradientUnits="userSpaceOnUse">
<stop stop-color="#FF5200"/>
<stop offset="1" stop-color="#FF5200" stop-opacity="0"/>
</linearGradient>
<linearGradient id="paint7_linear" x1="-9.68651" y1="135.391" x2="86.7171" y2="111.997" gradientUnits="userSpaceOnUse">
<stop stop-color="#FF5200"/>
<stop offset="1" stop-color="#FF5200" stop-opacity="0"/>
</linearGradient>
<linearGradient id="paint8_linear" x1="43.3135" y1="96.3912" x2="139.717" y2="72.9968" gradientUnits="userSpaceOnUse">
<stop stop-color="#FF5200"/>
<stop offset="1" stop-color="#FF5200" stop-opacity="0"/>
</linearGradient>
<linearGradient id="paint9_linear" x1="92.3135" y1="44.3912" x2="188.717" y2="20.9968" gradientUnits="userSpaceOnUse">
<stop stop-color="#FF5200"/>
<stop offset="1" stop-color="#FF5200" stop-opacity="0"/>
</linearGradient>
<linearGradient id="paint10_linear" x1="81.3135" y1="136.391" x2="177.717" y2="112.997" gradientUnits="userSpaceOnUse">
<stop stop-color="#FF5200"/>
<stop offset="1" stop-color="#FF5200" stop-opacity="0"/>
</linearGradient>
<linearGradient id="paint11_linear" x1="0.0476188" y1="44.1569" x2="107.661" y2="18.0422" gradientUnits="userSpaceOnUse">
<stop stop-color="#FF5200"/>
<stop offset="1" stop-color="#FF5200" stop-opacity="0"/>
</linearGradient>
</defs>
</svg>
