<svg width="125" height="42" viewBox="0 0 125 42" fill="none" xmlns="http://www.w3.org/2000/svg">
<path d="M16.4 30.72C20.9 30.72 25.46 29.34 28.34 26.7L24.98 21.78C23.12 23.58 19.7 24.66 17.24 24.66C12.32 24.66 9.38 21.6 8.9 17.94H30.44V16.26C30.44 6.78 24.56 0.299998 15.92 0.299998C7.1 0.299998 0.92 7.08 0.92 15.48C0.92 24.78 7.58 30.72 16.4 30.72ZM23.06 12.78H8.78C9.14 9.9 11.18 6.36 15.92 6.36C20.96 6.36 22.88 10.02 23.06 12.78ZM60.9641 30V11.28C60.9641 2.94 54.9041 0.299998 48.3041 0.299998C43.7441 0.299998 39.1841 1.74 35.6441 4.86L38.5241 9.96C40.9841 7.68 43.8641 6.54 46.9841 6.54C50.8241 6.54 53.3441 8.46 53.3441 11.4V15.3C51.4241 13.02 48.0041 11.76 44.1641 11.76C39.5441 11.76 34.0841 14.34 34.0841 21.12C34.0841 27.6 39.5441 30.72 44.1641 30.72C47.9441 30.72 51.3641 29.34 53.3441 27V30H60.9641ZM47.2241 25.56C44.2241 25.56 41.7641 24 41.7641 21.3C41.7641 18.48 44.2241 16.92 47.2241 16.92C49.6841 16.92 52.0841 17.76 53.3441 19.44V23.04C52.0841 24.72 49.6841 25.56 47.2241 25.56ZM78.9622 30.72C87.0022 30.72 91.5022 26.7 91.5022 21.42C91.5022 9.72 74.3422 13.32 74.3422 9C74.3422 7.38 76.1422 6.12 78.9022 6.12C82.4422 6.12 85.7422 7.62 87.4822 9.48L90.5422 4.26C87.6622 1.98 83.7622 0.299998 78.8422 0.299998C71.2222 0.299998 66.9622 4.56 66.9622 9.42C66.9622 20.82 84.1822 16.92 84.1822 21.72C84.1822 23.52 82.6222 24.84 79.3222 24.84C75.7222 24.84 71.4022 22.86 69.3022 20.88L66.0022 26.22C69.0622 29.04 73.9222 30.72 78.9622 30.72ZM96.0959 41.34C97.0559 41.58 98.9759 41.76 99.8759 41.76C104.856 41.64 108.696 40.2 110.856 34.74L124.476 1.02H116.256L108.696 21.18L101.136 1.02H92.9759L104.736 30.42L103.656 32.88C102.936 34.44 101.616 34.98 99.6359 34.98C98.9159 34.98 97.8959 34.8 97.2359 34.5L96.0959 41.34Z" fill="url(#paint0_linear)"/>
<defs>
<linearGradient id="paint0_linear" x1="17.5" y1="30" x2="254.007" y2="-127.198" gradientUnits="userSpaceOnUse">
<stop stop-color="#FF5200"/>
<stop offset="1" stop-color="#FF5200" stop-opacity="0"/>
</linearGradient>
</defs>
</svg>
