<svg width="122" height="42" viewBox="0 0 122 42" fill="none" xmlns="http://www.w3.org/2000/svg">
<path d="M13.14 41V18.68H19.02V12.02H13.14V10.46C13.14 7.76 14.64 6.38 16.74 6.38C18.12 6.38 19.14 6.8 19.92 7.58L22.8 3.08C20.94 1.1 18 0.379997 15.24 0.379997C9.42 0.379997 5.46 4.28 5.46 10.46V12.02H0.66V18.68H5.46V41H13.14ZM37.4489 41.72C47.0489 41.72 52.8089 34.76 52.8089 26.48C52.8089 18.26 47.0489 11.3 37.4489 11.3C27.9089 11.3 22.1489 18.26 22.1489 26.48C22.1489 34.76 27.9089 41.72 37.4489 41.72ZM37.4489 34.94C32.7089 34.94 30.0689 31.04 30.0689 26.48C30.0689 21.98 32.7089 18.08 37.4489 18.08C42.1889 18.08 44.8889 21.98 44.8889 26.48C44.8889 31.04 42.1889 34.94 37.4489 34.94ZM72.502 41.72C82.102 41.72 87.862 34.76 87.862 26.48C87.862 18.26 82.102 11.3 72.502 11.3C62.962 11.3 57.202 18.26 57.202 26.48C57.202 34.76 62.962 41.72 72.502 41.72ZM72.502 34.94C67.762 34.94 65.122 31.04 65.122 26.48C65.122 21.98 67.762 18.08 72.502 18.08C77.242 18.08 79.942 21.98 79.942 26.48C79.942 31.04 77.242 34.94 72.502 34.94ZM121.715 41V0.979997H114.035V15.74C111.755 12.8 108.515 11.3 105.095 11.3C97.7152 11.3 92.2552 17.06 92.2552 26.54C92.2552 36.2 97.7752 41.72 105.095 41.72C108.575 41.72 111.755 40.16 114.035 37.28V41H121.715ZM107.435 34.94C103.115 34.94 100.115 31.52 100.115 26.54C100.115 21.5 103.115 18.08 107.435 18.08C110.015 18.08 112.775 19.46 114.035 21.38V31.64C112.775 33.56 110.015 34.94 107.435 34.94Z" fill="black"/>
</svg>
