<svg width="126" height="131" viewBox="0 0 126 131" fill="none" xmlns="http://www.w3.org/2000/svg">
<path d="M17.4 55.72C21.9 55.72 26.46 54.34 29.34 51.7L25.98 46.78C24.12 48.58 20.7 49.66 18.24 49.66C13.32 49.66 10.38 46.6 9.9 42.94H31.44V41.26C31.44 31.78 25.56 25.3 16.92 25.3C8.1 25.3 1.92 32.08 1.92 40.48C1.92 49.78 8.58 55.72 17.4 55.72ZM24.06 37.78H9.78C10.14 34.9 12.18 31.36 16.92 31.36C21.96 31.36 23.88 35.02 24.06 37.78ZM61.9641 55V36.28C61.9641 27.94 55.9041 25.3 49.3041 25.3C44.7441 25.3 40.1841 26.74 36.6441 29.86L39.5241 34.96C41.9841 32.68 44.8641 31.54 47.9841 31.54C51.8241 31.54 54.3441 33.46 54.3441 36.4V40.3C52.4241 38.02 49.0041 36.76 45.1641 36.76C40.5441 36.76 35.0841 39.34 35.0841 46.12C35.0841 52.6 40.5441 55.72 45.1641 55.72C48.9441 55.72 52.3641 54.34 54.3441 52V55H61.9641ZM48.2241 50.56C45.2241 50.56 42.7641 49 42.7641 46.3C42.7641 43.48 45.2241 41.92 48.2241 41.92C50.6841 41.92 53.0841 42.76 54.3441 44.44V48.04C53.0841 49.72 50.6841 50.56 48.2241 50.56ZM79.9622 55.72C88.0022 55.72 92.5022 51.7 92.5022 46.42C92.5022 34.72 75.3422 38.32 75.3422 34C75.3422 32.38 77.1422 31.12 79.9022 31.12C83.4422 31.12 86.7422 32.62 88.4822 34.48L91.5422 29.26C88.6622 26.98 84.7622 25.3 79.8422 25.3C72.2222 25.3 67.9622 29.56 67.9622 34.42C67.9622 45.82 85.1822 41.92 85.1822 46.72C85.1822 48.52 83.6222 49.84 80.3222 49.84C76.7222 49.84 72.4022 47.86 70.3022 45.88L67.0022 51.22C70.0622 54.04 74.9222 55.72 79.9622 55.72ZM97.0959 66.34C98.0559 66.58 99.9759 66.76 100.876 66.76C105.856 66.64 109.696 65.2 111.856 59.74L125.476 26.02H117.256L109.696 46.18L102.136 26.02H93.9759L105.736 55.42L104.656 57.88C103.936 59.44 102.616 59.98 100.636 59.98C99.9159 59.98 98.8959 59.8 98.2359 59.5L97.0959 66.34Z" fill="url(#paint0_linear)"/>
<path d="M13.14 113V90.68H19.02V84.02H13.14V82.46C13.14 79.76 14.64 78.38 16.74 78.38C18.12 78.38 19.14 78.8 19.92 79.58L22.8 75.08C20.94 73.1 18 72.38 15.24 72.38C9.42 72.38 5.46 76.28 5.46 82.46V84.02H0.66V90.68H5.46V113H13.14ZM37.4489 113.72C47.0489 113.72 52.8089 106.76 52.8089 98.48C52.8089 90.26 47.0489 83.3 37.4489 83.3C27.9089 83.3 22.1489 90.26 22.1489 98.48C22.1489 106.76 27.9089 113.72 37.4489 113.72ZM37.4489 106.94C32.7089 106.94 30.0689 103.04 30.0689 98.48C30.0689 93.98 32.7089 90.08 37.4489 90.08C42.1889 90.08 44.8889 93.98 44.8889 98.48C44.8889 103.04 42.1889 106.94 37.4489 106.94ZM72.502 113.72C82.102 113.72 87.862 106.76 87.862 98.48C87.862 90.26 82.102 83.3 72.502 83.3C62.962 83.3 57.202 90.26 57.202 98.48C57.202 106.76 62.962 113.72 72.502 113.72ZM72.502 106.94C67.762 106.94 65.122 103.04 65.122 98.48C65.122 93.98 67.762 90.08 72.502 90.08C77.242 90.08 79.942 93.98 79.942 98.48C79.942 103.04 77.242 106.94 72.502 106.94ZM121.715 113V72.98H114.035V87.74C111.755 84.8 108.515 83.3 105.095 83.3C97.7152 83.3 92.2552 89.06 92.2552 98.54C92.2552 108.2 97.7752 113.72 105.095 113.72C108.575 113.72 111.755 112.16 114.035 109.28V113H121.715ZM107.435 106.94C103.115 106.94 100.115 103.52 100.115 98.54C100.115 93.5 103.115 90.08 107.435 90.08C110.015 90.08 112.775 91.46 114.035 93.38V103.64C112.775 105.56 110.015 106.94 107.435 106.94Z" fill="black"/>
<defs>
<linearGradient id="paint0_linear" x1="18.5" y1="55" x2="255.007" y2="-102.198" gradientUnits="userSpaceOnUse">
<stop stop-color="#FF5200"/>
<stop offset="1" stop-color="#FF5200" stop-opacity="0"/>
</linearGradient>
</defs>
</svg>
