<svg width="16" height="14" viewBox="0 0 16 14" fill="none" xmlns="http://www.w3.org/2000/svg">
<path d="M0.809082 4.63916C0.809082 7.75928 3.42383 10.8281 7.55469 13.4648C7.7085 13.5601 7.92822 13.6626 8.08203 13.6626C8.23584 13.6626 8.45557 13.5601 8.6167 13.4648C12.7402 10.8281 15.355 7.75928 15.355 4.63916C15.355 2.04639 13.5752 0.215332 11.2021 0.215332C9.84717 0.215332 8.74854 0.859863 8.08203 1.84863C7.43018 0.867188 6.31689 0.215332 4.96191 0.215332C2.58887 0.215332 0.809082 2.04639 0.809082 4.63916ZM1.98828 4.63916C1.98828 2.69092 3.24805 1.39453 4.94727 1.39453C6.32422 1.39453 7.11523 2.25146 7.58398 2.98389C7.78174 3.27686 7.90625 3.35742 8.08203 3.35742C8.25781 3.35742 8.36768 3.26953 8.58008 2.98389C9.08545 2.26611 9.84717 1.39453 11.2168 1.39453C12.916 1.39453 14.1758 2.69092 14.1758 4.63916C14.1758 7.36377 11.2974 10.3008 8.23584 12.3369C8.1626 12.3882 8.11133 12.4248 8.08203 12.4248C8.05273 12.4248 8.00146 12.3882 7.93555 12.3369C4.8667 10.3008 1.98828 7.36377 1.98828 4.63916Z" fill="black"/>
</svg>
