<svg width="10" height="9" viewBox="0 0 10 9" fill="none" xmlns="http://www.w3.org/2000/svg">
<path d="M2.46094 8.21875C2.62109 8.34375 2.82422 8.30078 3.06641 8.125L5.13281 6.60547L7.20312 8.125C7.44531 8.30078 7.64453 8.34375 7.80859 8.21875C7.96875 8.09766 8.00391 7.89844 7.90625 7.61719L7.08984 5.18359L9.17578 3.6875C9.41797 3.51562 9.51562 3.33203 9.45312 3.14062C9.39062 2.94922 9.20703 2.85547 8.90625 2.85938L6.34766 2.87891L5.57031 0.433594C5.47656 0.148438 5.33594 0 5.13281 0C4.93359 0 4.79297 0.148438 4.69922 0.433594L3.92188 2.87891L1.36328 2.85938C1.0625 2.85547 0.878906 2.94922 0.816406 3.14062C0.75 3.33203 0.851562 3.51562 1.09375 3.6875L3.17969 5.18359L2.36328 7.61719C2.26562 7.89844 2.30078 8.09766 2.46094 8.21875ZM3.02344 7.44922C3.01562 7.4375 3.01953 7.43359 3.02344 7.41016L3.80078 5.17969C3.85547 5.02734 3.82422 4.90234 3.6875 4.80859L1.74219 3.46484C1.72266 3.45312 1.71875 3.44531 1.72266 3.4375C1.72656 3.42578 1.73438 3.42578 1.75781 3.42578L4.12109 3.46484C4.28125 3.46875 4.38281 3.40625 4.43359 3.24609L5.11328 0.984375C5.11719 0.960938 5.125 0.953125 5.13281 0.953125C5.14453 0.953125 5.15234 0.960938 5.15625 0.984375L5.83594 3.24609C5.88672 3.40625 5.98828 3.46875 6.14844 3.46484L8.51172 3.42578C8.53516 3.42578 8.54297 3.42578 8.54688 3.4375C8.55078 3.44531 8.54297 3.45312 8.52734 3.46484L6.58203 4.80859C6.44531 4.90234 6.41406 5.02734 6.46875 5.17969L7.24609 7.41016C7.25 7.43359 7.25391 7.4375 7.24609 7.44922C7.23828 7.45703 7.22656 7.45312 7.21094 7.44141L5.33203 6.00781C5.20703 5.91016 5.0625 5.91016 4.9375 6.00781L3.05859 7.44141C3.04297 7.45312 3.03125 7.45703 3.02344 7.44922Z" fill="url(#paint0_linear)"/>
<defs>
<linearGradient id="paint0_linear" x1="1.61508" y1="6.53425" x2="26.8553" y2="-4.15734" gradientUnits="userSpaceOnUse">
<stop stop-color="#FF5200"/>
<stop offset="1" stop-color="#FF5200" stop-opacity="0"/>
</linearGradient>
</defs>
</svg>
